<svg width="32" height="32" viewBox="0 0 32 32" fill="none" xmlns="http://www.w3.org/2000/svg">
<g clip-path="url(#clip0_3345_43854)">
<path d="M15.9997 25.0512C20.9987 25.0512 25.0512 20.9987 25.0512 15.9997C25.0512 11.0007 20.9987 6.94824 15.9997 6.94824C11.0007 6.94824 6.94824 11.0007 6.94824 15.9997C6.94824 20.9987 11.0007 25.0512 15.9997 25.0512Z" fill="#FFD347"/>
<path d="M16 6.94922C15.6724 6.94922 15.3489 6.96709 15.0303 7.00097C19.5731 7.48491 23.1117 11.3292 23.1117 16.0004C23.1117 20.6716 19.573 24.516 15.0303 24.9999C15.3489 25.0339 15.6723 25.0517 16 25.0517C20.9989 25.0517 25.0513 20.9993 25.0513 16.0004C25.0513 11.0015 20.999 6.94922 16 6.94922Z" fill="#FFBE31"/>
<path d="M16.0001 25.5345C10.7426 25.5345 6.46533 21.2572 6.46533 15.9997C6.46533 13.8395 7.20789 11.7233 8.55621 10.041C8.72321 9.83253 9.02758 9.79897 9.23589 9.96603C9.44427 10.1331 9.47789 10.4374 9.31083 10.6458C8.08196 12.1791 7.43239 14.0303 7.43239 15.9997C7.43239 20.724 11.2759 24.5675 16.0001 24.5675C20.7244 24.5675 24.5679 20.724 24.5679 15.9997C24.5679 11.2754 20.7244 7.43197 16.0001 7.43197C14.057 7.43197 12.2251 8.06609 10.7025 9.26566C10.4927 9.43078 10.1886 9.39478 10.0234 9.18509C9.85814 8.97528 9.89421 8.67122 10.1039 8.50597C11.7988 7.17066 13.8377 6.46484 16.0001 6.46484C21.2576 6.46484 25.5349 10.7422 25.5349 15.9997C25.5349 21.2572 21.2576 25.5345 16.0001 25.5345Z" fill="black"/>
<path d="M16.0002 3.553C15.7331 3.553 15.5166 3.33656 15.5166 3.06944V0.483562C15.5166 0.216437 15.7331 0 16.0002 0C16.2672 0 16.4837 0.216437 16.4837 0.483562V3.0695C16.4837 3.33656 16.2672 3.553 16.0002 3.553Z" fill="black"/>
<path d="M9.53528 5.28573C9.36816 5.28573 9.20566 5.19904 9.1161 5.04392L7.82316 2.80448C7.68966 2.57323 7.76885 2.27748 8.00016 2.14392C8.23147 2.01054 8.52716 2.08954 8.66072 2.32092L9.95366 4.56035C10.0872 4.7916 10.008 5.08735 9.77666 5.22092C9.70047 5.26479 9.61735 5.28573 9.53528 5.28573Z" fill="black"/>
<path d="M4.80127 10.018C4.71927 10.018 4.63608 9.99714 4.55996 9.95314L2.32046 8.6602C2.08921 8.5267 2.00996 8.23095 2.14346 7.99964C2.27696 7.76833 2.57271 7.6892 2.80402 7.82264L5.04352 9.11558C5.27477 9.24908 5.35402 9.54483 5.22052 9.77614C5.13089 9.93133 4.96839 10.018 4.80127 10.018Z" fill="black"/>
<path d="M3.0695 16.4837H0.483562C0.2165 16.4837 0 16.2673 0 16.0002C0 15.733 0.2165 15.5166 0.483562 15.5166H3.06956C3.33662 15.5166 3.55312 15.733 3.55312 16.0002C3.55312 16.2673 3.33656 16.4837 3.0695 16.4837Z" fill="black"/>
<path d="M2.56266 24.2416C2.39553 24.2416 2.23303 24.1549 2.14347 23.9998C2.00997 23.7685 2.08916 23.4728 2.32047 23.3392L4.55997 22.0463C4.79122 21.9129 5.08697 21.9919 5.22053 22.2233C5.35403 22.4545 5.27484 22.7503 5.04353 22.8838L2.80403 24.1768C2.72785 24.2207 2.64466 24.2416 2.56266 24.2416Z" fill="black"/>
<path d="M8.24146 29.9216C8.15946 29.9216 8.07627 29.9007 8.00014 29.8567C7.76889 29.7232 7.68964 29.4275 7.82314 29.1962L9.11608 26.9567C9.24958 26.7254 9.54533 26.6462 9.77664 26.7797C10.0079 26.9132 10.0871 27.2089 9.95364 27.4402L8.66071 29.6797C8.57108 29.8349 8.40858 29.9216 8.24146 29.9216Z" fill="black"/>
<path d="M16.0002 32.0003C15.7331 32.0003 15.5166 31.7839 15.5166 31.5168V28.9308C15.5166 28.6637 15.7331 28.4473 16.0002 28.4473C16.2672 28.4473 16.4837 28.6637 16.4837 28.9308V31.5168C16.4837 31.7839 16.2672 32.0003 16.0002 32.0003Z" fill="black"/>
<path d="M23.7584 29.9215C23.5913 29.9215 23.4288 29.8348 23.3392 29.6797L22.0463 27.4402C21.9128 27.209 21.992 26.9132 22.2233 26.7797C22.4546 26.6463 22.7503 26.7253 22.8839 26.9567L24.1768 29.1962C24.3103 29.4274 24.2311 29.7232 23.9998 29.8567C23.9236 29.9007 23.8405 29.9215 23.7584 29.9215Z" fill="black"/>
<path d="M29.437 24.2416C29.355 24.2416 29.2718 24.2208 29.1957 24.1768L26.9562 22.8838C26.7249 22.7503 26.6457 22.4546 26.7792 22.2233C26.9127 21.992 27.2084 21.9128 27.4398 22.0463L29.6793 23.3392C29.9105 23.4727 29.9898 23.7685 29.8563 23.9998C29.7666 24.1549 29.6041 24.2416 29.437 24.2416Z" fill="black"/>
<path d="M31.5163 16.4837H28.9303C28.6633 16.4837 28.4468 16.2673 28.4468 16.0002C28.4468 15.733 28.6633 15.5166 28.9303 15.5166H31.5163C31.7834 15.5166 31.9999 15.733 31.9999 16.0002C31.9999 16.2673 31.7834 16.4837 31.5163 16.4837Z" fill="black"/>
<path d="M27.1984 10.0179C27.0313 10.0179 26.8688 9.93125 26.7792 9.77613C26.6457 9.54488 26.7249 9.24913 26.9562 9.11556L29.1957 7.82263C29.427 7.68925 29.7227 7.76825 29.8563 7.99963C29.9898 8.23088 29.9106 8.52663 29.6793 8.66019L27.4398 9.95313C27.3636 9.99706 27.2804 10.0179 27.1984 10.0179Z" fill="black"/>
<path d="M22.4646 5.28581C22.3826 5.28581 22.2994 5.26493 22.2233 5.22093C21.992 5.08743 21.9128 4.79168 22.0463 4.56037L23.3392 2.32093C23.4727 2.08962 23.7685 2.01049 23.9998 2.14393C24.231 2.27743 24.3103 2.57318 24.1768 2.80449L22.8839 5.04393C22.7942 5.19906 22.6317 5.28581 22.4646 5.28581Z" fill="black"/>
</g>
<defs>
<clipPath id="clip0_3345_43854">
<rect width="32" height="32" fill="white"/>
</clipPath>
</defs>
</svg>
